<svg width="24" height="24" viewBox="0 0 24 24" fill="none" xmlns="http://www.w3.org/2000/svg">
<path d="M11.25 17.25H12.75L12 18L11.25 17.25Z" stroke="currentColor" stroke-width="1" stroke-linecap="round" stroke-linejoin="round"/>
<path d="M15 12L17 14" stroke="currentColor" stroke-width="1" stroke-linecap="round" stroke-linejoin="round"/>
<path d="M18 6.5C18 6.36739 17.9473 6.24021 17.8536 6.14645C17.7598 6.05268 17.6326 6 17.5 6" stroke="currentColor" stroke-width="1" stroke-linecap="round" stroke-linejoin="round"/>
<path d="M20.6902 9.66976C21.1403 9.21902 21.4895 8.67786 21.7148 8.08209C21.9401 7.48631 22.0364 6.84949 21.9973 6.21374C21.9581 5.57798 21.7845 4.95777 21.4878 4.39414C21.1911 3.8305 20.7781 3.33627 20.2762 2.94412C19.7742 2.55198 19.1948 2.27087 18.5761 2.11937C17.9574 1.96787 17.3136 1.94944 16.6873 2.0653C16.0609 2.18115 15.4663 2.42866 14.9428 2.79144C14.4192 3.15422 13.9787 3.62402 13.6502 4.16976C12.5612 3.95023 11.4392 3.95023 10.3502 4.16976C10.0217 3.62402 9.58117 3.15422 9.05762 2.79144C8.53407 2.42866 7.93947 2.18115 7.31313 2.0653C6.6868 1.94944 6.043 1.96787 5.42432 2.11937C4.80564 2.27087 4.22617 2.55198 3.72423 2.94412C3.22229 3.33627 2.80932 3.8305 2.51262 4.39414C2.21593 4.95777 2.04227 5.57798 2.00313 6.21374C1.96399 6.84949 2.06027 7.48631 2.28559 8.08209C2.51091 8.67786 2.86015 9.21902 3.3102 9.66976C2.4902 11.1998 2.0002 12.8798 2.0002 14.4998C2.0002 19.4698 6.4802 21.9998 12.0002 21.9998C17.5202 21.9998 22.0002 19.4698 22.0002 14.4998C22.0002 12.8798 21.5202 11.1998 20.7002 9.66976" stroke="currentColor" stroke-width="1" stroke-linecap="round" stroke-linejoin="round"/>
<path d="M6.00003 6.50003C5.99936 6.43418 6.01183 6.36886 6.03672 6.3079C6.06161 6.24693 6.09842 6.19155 6.14498 6.14498C6.19155 6.09842 6.24693 6.06161 6.3079 6.03672C6.36886 6.01183 6.43418 5.99936 6.50003 6.00003" stroke="currentColor" stroke-width="1" stroke-linecap="round" stroke-linejoin="round"/>
<path d="M9 12L7 14" stroke="currentColor" stroke-width="1" stroke-linecap="round" stroke-linejoin="round"/>
</svg>
