<svg width="83" height="82" viewBox="0 0 83 82" fill="none" xmlns="http://www.w3.org/2000/svg">
<path d="M41.3927 41C35.0594 27.3333 26.1927 0 41.3927 0C56.5927 0 47.726 27.3333 41.3927 41Z" fill="#4D5461"/>
<path d="M41.3927 41C35.0594 54.6667 26.1927 82 41.3927 82C56.5927 82 47.726 54.6667 41.3927 41Z" fill="#4D5461"/>
<path d="M41.3928 41.0001C27.7262 34.6668 0.392823 25.8001 0.392822 41.0001C0.392821 56.2001 27.7262 47.3335 41.3928 41.0001Z" fill="#4D5461"/>
<path d="M41.3928 41.0001C55.0595 34.6668 82.3928 25.8001 82.3928 41.0001C82.3928 56.2001 55.0595 47.3335 41.3928 41.0001Z" fill="#4D5461"/>
<path d="M43.9344 38.3668C49.1198 24.2247 62.1777 -1.37257 72.9258 9.37546C83.6738 20.1235 58.0765 33.1814 43.9344 38.3668Z" fill="#4D5461"/>
<path d="M43.8509 43.4583C57.9931 48.6437 83.5903 61.7017 72.8423 72.4497C62.0943 83.1977 49.0364 57.6004 43.8509 43.4583Z" fill="#4D5461"/>
<path d="M38.9345 38.3668C33.7491 24.2247 20.6912 -1.37257 9.94315 9.37546C-0.804876 20.1235 24.7924 33.1814 38.9345 38.3668Z" fill="#4D5461"/>
<path d="M38.9345 43.4583C24.7923 48.6437 -0.804939 61.7017 9.94308 72.4497C20.6911 83.1977 33.749 57.6004 38.9345 43.4583Z" fill="#4D5461"/>
</svg>