<svg width="82" height="83" viewBox="0 0 82 83" fill="none" xmlns="http://www.w3.org/2000/svg">
<path d="M40.8941 41.3916C34.6371 27.7249 25.8773 0.391602 40.8941 0.391602C55.911 0.391602 47.1512 27.7249 40.8941 41.3916Z" fill="#E9EBEE"/>
<path d="M40.8941 41.3916C34.6371 55.0583 25.8773 82.3916 40.8941 82.3916C55.911 82.3916 47.1512 55.0583 40.8941 41.3916Z" fill="#E9EBEE"/>
<path d="M40.506 41.3927C27.004 35.0594 2.93971e-07 26.1927 -3.62437e-07 41.3927C-1.01884e-06 56.5927 27.004 47.726 40.506 41.3927Z" fill="#E9EBEE"/>
<path d="M41.494 41.3927C54.996 35.0594 82 26.1927 82 41.3927C82 56.5927 54.996 47.726 41.494 41.3927Z" fill="#E9EBEE"/>
<path d="M43.405 39.3175C48.528 25.1754 61.4286 -0.421882 72.0471 10.3261C82.6656 21.0742 57.3768 34.1321 43.405 39.3175Z" fill="#E9EBEE"/>
<path d="M43.405 44.326C57.3768 49.5114 82.6656 62.5693 72.0471 73.3174C61.4286 84.0654 48.528 58.4681 43.405 44.326Z" fill="#E9EBEE"/>
<path d="M38.4568 39.3175C33.3338 25.1754 20.4332 -0.421882 9.8147 10.3261C-0.803832 21.0742 24.485 34.1321 38.4568 39.3175Z" fill="#E9EBEE"/>
<path d="M38.4568 44.326C24.485 49.5114 -0.80383 62.5693 9.8147 73.3174C20.4332 84.0654 33.3338 58.4681 38.4568 44.326Z" fill="#E9EBEE"/>
</svg>
