<svg width="24" height="24" viewBox="0 0 24 24" fill="none" xmlns="http://www.w3.org/2000/svg">
<g clip-path="url(#clip0_35_769)">
<rect x="16" y="20" width="8" height="2" transform="rotate(180 16 20)" fill="#697180"/>
<rect x="16" y="6" width="8" height="2" transform="rotate(180 16 6)" fill="#697180"/>
<rect x="18" y="8" width="2" height="2" transform="rotate(180 18 8)" fill="#697180"/>
<rect x="18" y="18" width="12" height="2" transform="rotate(180 18 18)" fill="#697180"/>
<rect x="17" y="8" width="11" height="2" transform="rotate(180 17 8)" fill="#697180"/>
<rect x="8" y="18" width="2" height="2" transform="rotate(180 8 18)" fill="#697180"/>
<rect x="6" y="16" width="2" height="8" transform="rotate(180 6 16)" fill="#697180"/>
<rect x="20" y="16" width="15" height="8" transform="rotate(180 20 16)" fill="#697180"/>
</g>
<defs>
<clipPath id="clip0_35_769">
<rect width="16" height="16" fill="white" transform="translate(4 4)"/>
</clipPath>
</defs>
</svg>
