<svg width="24" height="24" viewBox="0 0 24 24" fill="none" xmlns="http://www.w3.org/2000/svg">
<g clip-path="url(#clip0_35_754)">
<rect x="15" y="6" width="2" height="2" transform="rotate(180 15 6)" fill="#697180"/>
<rect x="17" y="8" width="2" height="2" transform="rotate(180 17 8)" fill="#697180"/>
<rect x="13" y="8" width="2" height="2" transform="rotate(180 13 8)" fill="#697180"/>
<rect x="11" y="10" width="2" height="2" transform="rotate(180 11 10)" fill="#697180"/>
<rect x="9" y="12" width="2" height="2" transform="rotate(180 9 12)" fill="#697180"/>
<rect x="11" y="14" width="6" height="2" transform="rotate(180 11 14)" fill="#697180"/>
<rect x="11" y="16" width="6" height="2" transform="rotate(180 11 16)" fill="#697180"/>
<rect x="19" y="20" width="14" height="2" transform="rotate(180 19 20)" fill="#697180"/>
<rect x="19" y="10" width="2" height="2" transform="rotate(180 19 10)" fill="#697180"/>
<rect x="17" y="12" width="2" height="2" transform="rotate(180 17 12)" fill="#697180"/>
<rect x="15" y="14" width="2" height="2" transform="rotate(180 15 14)" fill="#697180"/>
<rect x="13" y="16" width="2" height="2" transform="rotate(180 13 16)" fill="#697180"/>
</g>
<defs>
<clipPath id="clip0_35_754">
<rect width="14" height="16" fill="white" transform="translate(5 4)"/>
</clipPath>
</defs>
</svg>
